ISO-10303-21;
HEADER;
/* Generated by software containing ST-Developer
 * from STEP Tools, Inc. (www.steptools.com) 
 */

FILE_DESCRIPTION(
/* description */ (''),
/* implementation_level */ '2;1');

FILE_NAME(
/* name */ 'PytesEbox_Case v5 - Top.step',
/* time_stamp */ '2024-08-03T15:01:20+02:00',
/* author */ (''),
/* organization */ (''),
/* preprocessor_version */ 'ST-DEVELOPER v20',
/* originating_system */ 'Autodesk Translation Framework v13.14.0.145',

/* authorisation */ '');

FILE_SCHEMA (('AUTOMOTIVE_DESIGN { 1 0 10303 214 3 1 1 }'));
ENDSEC;

DATA;
#10=MECHANICAL_DESIGN_GEOMETRIC_PRESENTATION_REPRESENTATION('',(#21),#586);
#11=ITEM_DEFINED_TRANSFORMATION($,$,#336,#380);
#12=ITEM_DEFINED_TRANSFORMATION($,$,#337,#381);
#13=(
REPRESENTATION_RELATIONSHIP($,$,#600,#599)
REPRESENTATION_RELATIONSHIP_WITH_TRANSFORMATION(#11)
SHAPE_REPRESENTATION_RELATIONSHIP()
);
#14=(
REPRESENTATION_RELATIONSHIP($,$,#601,#599)
REPRESENTATION_RELATIONSHIP_WITH_TRANSFORMATION(#12)
SHAPE_REPRESENTATION_RELATIONSHIP()
);
#15=CONTEXT_DEPENDENT_SHAPE_REPRESENTATION(#13,#597);
#16=CONTEXT_DEPENDENT_SHAPE_REPRESENTATION(#14,#598);
#17=NEXT_ASSEMBLY_USAGE_OCCURRENCE('case:1','case:1','case:1',#603,#604,
'case:1');
#18=NEXT_ASSEMBLY_USAGE_OCCURRENCE('cover:1','cover:1','cover:1',#603,#605,
'cover:1');
#19=SHAPE_REPRESENTATION_RELATIONSHIP('SRR','None',#601,#20);
#20=ADVANCED_BREP_SHAPE_REPRESENTATION('',(#22),#585);
#21=STYLED_ITEM('',(#618),#22);
#22=MANIFOLD_SOLID_BREP('cover',#311);
#23=SPHERICAL_SURFACE('',#369,3.);
#24=SPHERICAL_SURFACE('',#373,3.);
#25=SPHERICAL_SURFACE('',#377,3.);
#26=SPHERICAL_SURFACE('',#378,3.);
#27=CYLINDRICAL_SURFACE('',#350,1.7);
#28=CYLINDRICAL_SURFACE('',#354,1.7);
#29=CYLINDRICAL_SURFACE('',#358,1.7);
#30=CYLINDRICAL_SURFACE('',#362,1.7);
#31=CYLINDRICAL_SURFACE('',#363,3.);
#32=CYLINDRICAL_SURFACE('',#366,3.);
#33=CYLINDRICAL_SURFACE('',#370,3.);
#34=CYLINDRICAL_SURFACE('',#374,3.);
#35=CONICAL_SURFACE('',#347,2.425,0.785398163397448);
#36=CONICAL_SURFACE('',#351,2.425,0.785398163397448);
#37=CONICAL_SURFACE('',#355,2.425,0.785398163397448);
#38=CONICAL_SURFACE('',#359,2.425,0.785398163397448);
#39=FACE_BOUND('',#66,.T.);
#40=FACE_BOUND('',#67,.T.);
#41=FACE_BOUND('',#68,.T.);
#42=FACE_BOUND('',#69,.T.);
#43=FACE_BOUND('',#87,.T.);
#44=FACE_BOUND('',#88,.T.);
#45=FACE_BOUND('',#89,.T.);
#46=FACE_BOUND('',#90,.T.);
#47=FACE_OUTER_BOUND('',#65,.T.);
#48=FACE_OUTER_BOUND('',#70,.T.);
#49=FACE_OUTER_BOUND('',#71,.T.);
#50=FACE_OUTER_BOUND('',#72,.T.);
#51=FACE_OUTER_BOUND('',#73,.T.);
#52=FACE_OUTER_BOUND('',#74,.T.);
#53=FACE_OUTER_BOUND('',#75,.T.);
#54=FACE_OUTER_BOUND('',#76,.T.);
#55=FACE_OUTER_BOUND('',#77,.T.);
#56=FACE_OUTER_BOUND('',#78,.T.);
#57=FACE_OUTER_BOUND('',#79,.T.);
#58=FACE_OUTER_BOUND('',#80,.T.);
#59=FACE_OUTER_BOUND('',#81,.T.);
#60=FACE_OUTER_BOUND('',#82,.T.);
#61=FACE_OUTER_BOUND('',#83,.T.);
#62=FACE_OUTER_BOUND('',#84,.T.);
#63=FACE_OUTER_BOUND('',#85,.T.);
#64=FACE_OUTER_BOUND('',#86,.T.);
#65=EDGE_LOOP('',(#211,#212,#213,#214,#215,#216,#217,#218));
#66=EDGE_LOOP('',(#219));
#67=EDGE_LOOP('',(#220));
#68=EDGE_LOOP('',(#221));
#69=EDGE_LOOP('',(#222));
#70=EDGE_LOOP('',(#223,#224,#225,#226));
#71=EDGE_LOOP('',(#227,#228,#229,#230));
#72=EDGE_LOOP('',(#231,#232,#233,#234));
#73=EDGE_LOOP('',(#235,#236,#237,#238));
#74=EDGE_LOOP('',(#239,#240,#241,#242));
#75=EDGE_LOOP('',(#243,#244,#245,#246));
#76=EDGE_LOOP('',(#247,#248,#249,#250));
#77=EDGE_LOOP('',(#251,#252,#253,#254));
#78=EDGE_LOOP('',(#255,#256,#257,#258));
#79=EDGE_LOOP('',(#259,#260,#261,#262));
#80=EDGE_LOOP('',(#263,#264,#265));
#81=EDGE_LOOP('',(#266,#267,#268,#269));
#82=EDGE_LOOP('',(#270,#271,#272));
#83=EDGE_LOOP('',(#273,#274,#275,#276));
#84=EDGE_LOOP('',(#277,#278,#279));
#85=EDGE_LOOP('',(#280,#281,#282));
#86=EDGE_LOOP('',(#283,#284,#285,#286));
#87=EDGE_LOOP('',(#287));
#88=EDGE_LOOP('',(#288));
#89=EDGE_LOOP('',(#289));
#90=EDGE_LOOP('',(#290));
#91=CIRCLE('',#339,3.);
#92=CIRCLE('',#340,3.);
#93=CIRCLE('',#341,3.);
#94=CIRCLE('',#342,3.);
#95=CIRCLE('',#343,1.7);
#96=CIRCLE('',#344,1.7);
#97=CIRCLE('',#345,1.7);
#98=CIRCLE('',#346,1.7);
#99=CIRCLE('',#348,3.15);
#100=CIRCLE('',#349,1.7);
#101=CIRCLE('',#352,3.15);
#102=CIRCLE('',#353,1.7);
#103=CIRCLE('',#356,3.15);
#104=CIRCLE('',#357,1.7);
#105=CIRCLE('',#360,3.15);
#106=CIRCLE('',#361,1.7);
#107=CIRCLE('',#364,3.);
#108=CIRCLE('',#365,3.);
#109=CIRCLE('',#367,3.);
#110=CIRCLE('',#368,3.);
#111=CIRCLE('',#371,3.);
#112=CIRCLE('',#372,3.);
#113=CIRCLE('',#375,3.);
#114=CIRCLE('',#376,3.);
#115=LINE('',#498,#131);
#116=LINE('',#502,#132);
#117=LINE('',#506,#133);
#118=LINE('',#510,#134);
#119=LINE('',#524,#135);
#120=LINE('',#527,#136);
#121=LINE('',#532,#137);
#122=LINE('',#535,#138);
#123=LINE('',#540,#139);
#124=LINE('',#543,#140);
#125=LINE('',#548,#141);
#126=LINE('',#551,#142);
#127=LINE('',#556,#143);
#128=LINE('',#561,#144);
#129=LINE('',#567,#145);
#130=LINE('',#572,#146);
#131=VECTOR('',#390,10.);
#132=VECTOR('',#393,10.);
#133=VECTOR('',#396,10.);
#134=VECTOR('',#399,10.);
#135=VECTOR('',#414,2.425);
#136=VECTOR('',#419,1.7);
#137=VECTOR('',#424,2.425);
#138=VECTOR('',#429,1.7);
#139=VECTOR('',#434,2.425);
#140=VECTOR('',#439,1.7);
#141=VECTOR('',#444,2.425);
#142=VECTOR('',#449,1.7);
#143=VECTOR('',#454,10.);
#144=VECTOR('',#461,10.);
#145=VECTOR('',#470,10.);
#146=VECTOR('',#479,10.);
#147=VERTEX_POINT('',#496);
#148=VERTEX_POINT('',#497);
#149=VERTEX_POINT('',#499);
#150=VERTEX_POINT('',#501);
#151=VERTEX_POINT('',#503);
#152=VERTEX_POINT('',#505);
#153=VERTEX_POINT('',#507);
#154=VERTEX_POINT('',#509);
#155=VERTEX_POINT('',#512);
#156=VERTEX_POINT('',#514);
#157=VERTEX_POINT('',#516);
#158=VERTEX_POINT('',#518);
#159=VERTEX_POINT('',#521);
#160=VERTEX_POINT('',#523);
#161=VERTEX_POINT('',#529);
#162=VERTEX_POINT('',#531);
#163=VERTEX_POINT('',#537);
#164=VERTEX_POINT('',#539);
#165=VERTEX_POINT('',#545);
#166=VERTEX_POINT('',#547);
#167=VERTEX_POINT('',#553);
#168=VERTEX_POINT('',#555);
#169=VERTEX_POINT('',#560);
#170=VERTEX_POINT('',#566);
#171=EDGE_CURVE('',#147,#148,#115,.T.);
#172=EDGE_CURVE('',#149,#148,#91,.T.);
#173=EDGE_CURVE('',#149,#150,#116,.T.);
#174=EDGE_CURVE('',#151,#150,#92,.T.);
#175=EDGE_CURVE('',#151,#152,#117,.T.);
#176=EDGE_CURVE('',#153,#152,#93,.T.);
#177=EDGE_CURVE('',#153,#154,#118,.T.);
#178=EDGE_CURVE('',#147,#154,#94,.T.);
#179=EDGE_CURVE('',#155,#155,#95,.T.);
#180=EDGE_CURVE('',#156,#156,#96,.T.);
#181=EDGE_CURVE('',#157,#157,#97,.T.);
#182=EDGE_CURVE('',#158,#158,#98,.T.);
#183=EDGE_CURVE('',#159,#159,#99,.T.);
#184=EDGE_CURVE('',#159,#160,#119,.T.);
#185=EDGE_CURVE('',#160,#160,#100,.T.);
#186=EDGE_CURVE('',#160,#158,#120,.T.);
#187=EDGE_CURVE('',#161,#161,#101,.T.);
#188=EDGE_CURVE('',#161,#162,#121,.T.);
#189=EDGE_CURVE('',#162,#162,#102,.T.);
#190=EDGE_CURVE('',#162,#157,#122,.T.);
#191=EDGE_CURVE('',#163,#163,#103,.T.);
#192=EDGE_CURVE('',#163,#164,#123,.T.);
#193=EDGE_CURVE('',#164,#164,#104,.T.);
#194=EDGE_CURVE('',#164,#156,#124,.T.);
#195=EDGE_CURVE('',#165,#165,#105,.T.);
#196=EDGE_CURVE('',#165,#166,#125,.T.);
#197=EDGE_CURVE('',#166,#166,#106,.T.);
#198=EDGE_CURVE('',#166,#155,#126,.T.);
#199=EDGE_CURVE('',#153,#167,#107,.T.);
#200=EDGE_CURVE('',#167,#168,#127,.T.);
#201=EDGE_CURVE('',#168,#154,#108,.T.);
#202=EDGE_CURVE('',#147,#168,#109,.T.);
#203=EDGE_CURVE('',#168,#169,#128,.T.);
#204=EDGE_CURVE('',#169,#148,#110,.T.);
#205=EDGE_CURVE('',#149,#169,#111,.T.);
#206=EDGE_CURVE('',#169,#170,#129,.T.);
#207=EDGE_CURVE('',#170,#150,#112,.T.);
#208=EDGE_CURVE('',#151,#170,#113,.T.);
#209=EDGE_CURVE('',#170,#167,#130,.T.);
#210=EDGE_CURVE('',#167,#152,#114,.T.);
#211=ORIENTED_EDGE('',*,*,#171,.T.);
#212=ORIENTED_EDGE('',*,*,#172,.F.);
#213=ORIENTED_EDGE('',*,*,#173,.T.);
#214=ORIENTED_EDGE('',*,*,#174,.F.);
#215=ORIENTED_EDGE('',*,*,#175,.T.);
#216=ORIENTED_EDGE('',*,*,#176,.F.);
#217=ORIENTED_EDGE('',*,*,#177,.T.);
#218=ORIENTED_EDGE('',*,*,#178,.F.);
#219=ORIENTED_EDGE('',*,*,#179,.T.);
#220=ORIENTED_EDGE('',*,*,#180,.T.);
#221=ORIENTED_EDGE('',*,*,#181,.T.);
#222=ORIENTED_EDGE('',*,*,#182,.T.);
#223=ORIENTED_EDGE('',*,*,#183,.F.);
#224=ORIENTED_EDGE('',*,*,#184,.T.);
#225=ORIENTED_EDGE('',*,*,#185,.T.);
#226=ORIENTED_EDGE('',*,*,#184,.F.);
#227=ORIENTED_EDGE('',*,*,#185,.F.);
#228=ORIENTED_EDGE('',*,*,#186,.T.);
#229=ORIENTED_EDGE('',*,*,#182,.F.);
#230=ORIENTED_EDGE('',*,*,#186,.F.);
#231=ORIENTED_EDGE('',*,*,#187,.F.);
#232=ORIENTED_EDGE('',*,*,#188,.T.);
#233=ORIENTED_EDGE('',*,*,#189,.T.);
#234=ORIENTED_EDGE('',*,*,#188,.F.);
#235=ORIENTED_EDGE('',*,*,#189,.F.);
#236=ORIENTED_EDGE('',*,*,#190,.T.);
#237=ORIENTED_EDGE('',*,*,#181,.F.);
#238=ORIENTED_EDGE('',*,*,#190,.F.);
#239=ORIENTED_EDGE('',*,*,#191,.F.);
#240=ORIENTED_EDGE('',*,*,#192,.T.);
#241=ORIENTED_EDGE('',*,*,#193,.T.);
#242=ORIENTED_EDGE('',*,*,#192,.F.);
#243=ORIENTED_EDGE('',*,*,#193,.F.);
#244=ORIENTED_EDGE('',*,*,#194,.T.);
#245=ORIENTED_EDGE('',*,*,#180,.F.);
#246=ORIENTED_EDGE('',*,*,#194,.F.);
#247=ORIENTED_EDGE('',*,*,#195,.F.);
#248=ORIENTED_EDGE('',*,*,#196,.T.);
#249=ORIENTED_EDGE('',*,*,#197,.T.);
#250=ORIENTED_EDGE('',*,*,#196,.F.);
#251=ORIENTED_EDGE('',*,*,#197,.F.);
#252=ORIENTED_EDGE('',*,*,#198,.T.);
#253=ORIENTED_EDGE('',*,*,#179,.F.);
#254=ORIENTED_EDGE('',*,*,#198,.F.);
#255=ORIENTED_EDGE('',*,*,#199,.T.);
#256=ORIENTED_EDGE('',*,*,#200,.T.);
#257=ORIENTED_EDGE('',*,*,#201,.T.);
#258=ORIENTED_EDGE('',*,*,#177,.F.);
#259=ORIENTED_EDGE('',*,*,#202,.T.);
#260=ORIENTED_EDGE('',*,*,#203,.T.);
#261=ORIENTED_EDGE('',*,*,#204,.T.);
#262=ORIENTED_EDGE('',*,*,#171,.F.);
#263=ORIENTED_EDGE('',*,*,#202,.F.);
#264=ORIENTED_EDGE('',*,*,#178,.T.);
#265=ORIENTED_EDGE('',*,*,#201,.F.);
#266=ORIENTED_EDGE('',*,*,#205,.T.);
#267=ORIENTED_EDGE('',*,*,#206,.T.);
#268=ORIENTED_EDGE('',*,*,#207,.T.);
#269=ORIENTED_EDGE('',*,*,#173,.F.);
#270=ORIENTED_EDGE('',*,*,#205,.F.);
#271=ORIENTED_EDGE('',*,*,#172,.T.);
#272=ORIENTED_EDGE('',*,*,#204,.F.);
#273=ORIENTED_EDGE('',*,*,#208,.T.);
#274=ORIENTED_EDGE('',*,*,#209,.T.);
#275=ORIENTED_EDGE('',*,*,#210,.T.);
#276=ORIENTED_EDGE('',*,*,#175,.F.);
#277=ORIENTED_EDGE('',*,*,#208,.F.);
#278=ORIENTED_EDGE('',*,*,#174,.T.);
#279=ORIENTED_EDGE('',*,*,#207,.F.);
#280=ORIENTED_EDGE('',*,*,#199,.F.);
#281=ORIENTED_EDGE('',*,*,#176,.T.);
#282=ORIENTED_EDGE('',*,*,#210,.F.);
#283=ORIENTED_EDGE('',*,*,#200,.F.);
#284=ORIENTED_EDGE('',*,*,#209,.F.);
#285=ORIENTED_EDGE('',*,*,#206,.F.);
#286=ORIENTED_EDGE('',*,*,#203,.F.);
#287=ORIENTED_EDGE('',*,*,#183,.T.);
#288=ORIENTED_EDGE('',*,*,#187,.T.);
#289=ORIENTED_EDGE('',*,*,#191,.T.);
#290=ORIENTED_EDGE('',*,*,#195,.T.);
#291=PLANE('',#338);
#292=PLANE('',#379);
#293=ADVANCED_FACE('',(#47,#39,#40,#41,#42),#291,.T.);
#294=ADVANCED_FACE('',(#48),#35,.F.);
#295=ADVANCED_FACE('',(#49),#27,.F.);
#296=ADVANCED_FACE('',(#50),#36,.F.);
#297=ADVANCED_FACE('',(#51),#28,.F.);
#298=ADVANCED_FACE('',(#52),#37,.F.);
#299=ADVANCED_FACE('',(#53),#29,.F.);
#300=ADVANCED_FACE('',(#54),#38,.F.);
#301=ADVANCED_FACE('',(#55),#30,.F.);
#302=ADVANCED_FACE('',(#56),#31,.T.);
#303=ADVANCED_FACE('',(#57),#32,.T.);
#304=ADVANCED_FACE('',(#58),#23,.T.);
#305=ADVANCED_FACE('',(#59),#33,.T.);
#306=ADVANCED_FACE('',(#60),#24,.T.);
#307=ADVANCED_FACE('',(#61),#34,.T.);
#308=ADVANCED_FACE('',(#62),#25,.T.);
#309=ADVANCED_FACE('',(#63),#26,.T.);
#310=ADVANCED_FACE('',(#64,#43,#44,#45,#46),#292,.T.);
#311=CLOSED_SHELL('',(#293,#294,#295,#296,#297,#298,#299,#300,#301,#302,
#303,#304,#305,#306,#307,#308,#309,#310));
#312=DERIVED_UNIT_ELEMENT(#316,1.);
#313=DERIVED_UNIT_ELEMENT(#588,-3.);
#314=DERIVED_UNIT_ELEMENT(#316,1.);
#315=DERIVED_UNIT_ELEMENT(#588,-3.);
#316=(
MASS_UNIT()
NAMED_UNIT(*)
SI_UNIT(.KILO.,.GRAM.)
);
#317=DERIVED_UNIT((#312,#313));
#318=DERIVED_UNIT((#314,#315));
#319=MEASURE_REPRESENTATION_ITEM('density measure',
POSITIVE_RATIO_MEASURE(7850.),#317);
#320=MEASURE_REPRESENTATION_ITEM('density measure',
POSITIVE_RATIO_MEASURE(7850.),#318);
#321=PROPERTY_DEFINITION_REPRESENTATION(#331,#325);
#322=PROPERTY_DEFINITION_REPRESENTATION(#332,#326);
#323=PROPERTY_DEFINITION_REPRESENTATION(#333,#327);
#324=PROPERTY_DEFINITION_REPRESENTATION(#334,#328);
#325=REPRESENTATION('material name',(#329),#584);
#326=REPRESENTATION('density',(#319),#584);
#327=REPRESENTATION('material name',(#330),#585);
#328=REPRESENTATION('density',(#320),#585);
#329=DESCRIPTIVE_REPRESENTATION_ITEM('Stahl','Stahl');
#330=DESCRIPTIVE_REPRESENTATION_ITEM('Stahl','Stahl');
#331=PROPERTY_DEFINITION('material property','material name',#604);
#332=PROPERTY_DEFINITION('material property','density of part',#604);
#333=PROPERTY_DEFINITION('material property','material name',#605);
#334=PROPERTY_DEFINITION('material property','density of part',#605);
#335=AXIS2_PLACEMENT_3D('',#492,#382,#383);
#336=AXIS2_PLACEMENT_3D('',#493,#384,#385);
#337=AXIS2_PLACEMENT_3D('',#494,#386,#387);
#338=AXIS2_PLACEMENT_3D('',#495,#388,#389);
#339=AXIS2_PLACEMENT_3D('',#500,#391,#392);
#340=AXIS2_PLACEMENT_3D('',#504,#394,#395);
#341=AXIS2_PLACEMENT_3D('',#508,#397,#398);
#342=AXIS2_PLACEMENT_3D('',#511,#400,#401);
#343=AXIS2_PLACEMENT_3D('',#513,#402,#403);
#344=AXIS2_PLACEMENT_3D('',#515,#404,#405);
#345=AXIS2_PLACEMENT_3D('',#517,#406,#407);
#346=AXIS2_PLACEMENT_3D('',#519,#408,#409);
#347=AXIS2_PLACEMENT_3D('',#520,#410,#411);
#348=AXIS2_PLACEMENT_3D('',#522,#412,#413);
#349=AXIS2_PLACEMENT_3D('',#525,#415,#416);
#350=AXIS2_PLACEMENT_3D('',#526,#417,#418);
#351=AXIS2_PLACEMENT_3D('',#528,#420,#421);
#352=AXIS2_PLACEMENT_3D('',#530,#422,#423);
#353=AXIS2_PLACEMENT_3D('',#533,#425,#426);
#354=AXIS2_PLACEMENT_3D('',#534,#427,#428);
#355=AXIS2_PLACEMENT_3D('',#536,#430,#431);
#356=AXIS2_PLACEMENT_3D('',#538,#432,#433);
#357=AXIS2_PLACEMENT_3D('',#541,#435,#436);
#358=AXIS2_PLACEMENT_3D('',#542,#437,#438);
#359=AXIS2_PLACEMENT_3D('',#544,#440,#441);
#360=AXIS2_PLACEMENT_3D('',#546,#442,#443);
#361=AXIS2_PLACEMENT_3D('',#549,#445,#446);
#362=AXIS2_PLACEMENT_3D('',#550,#447,#448);
#363=AXIS2_PLACEMENT_3D('',#552,#450,#451);
#364=AXIS2_PLACEMENT_3D('',#554,#452,#453);
#365=AXIS2_PLACEMENT_3D('',#557,#455,#456);
#366=AXIS2_PLACEMENT_3D('',#558,#457,#458);
#367=AXIS2_PLACEMENT_3D('',#559,#459,#460);
#368=AXIS2_PLACEMENT_3D('',#562,#462,#463);
#369=AXIS2_PLACEMENT_3D('',#563,#464,#465);
#370=AXIS2_PLACEMENT_3D('',#564,#466,#467);
#371=AXIS2_PLACEMENT_3D('',#565,#468,#469);
#372=AXIS2_PLACEMENT_3D('',#568,#471,#472);
#373=AXIS2_PLACEMENT_3D('',#569,#473,#474);
#374=AXIS2_PLACEMENT_3D('',#570,#475,#476);
#375=AXIS2_PLACEMENT_3D('',#571,#477,#478);
#376=AXIS2_PLACEMENT_3D('',#573,#480,#481);
#377=AXIS2_PLACEMENT_3D('',#574,#482,#483);
#378=AXIS2_PLACEMENT_3D('',#575,#484,#485);
#379=AXIS2_PLACEMENT_3D('',#576,#486,#487);
#380=AXIS2_PLACEMENT_3D('',#577,#488,#489);
#381=AXIS2_PLACEMENT_3D('',#578,#490,#491);
#382=DIRECTION('axis',(0.,0.,1.));
#383=DIRECTION('refdir',(1.,0.,0.));
#384=DIRECTION('axis',(0.,0.,1.));
#385=DIRECTION('refdir',(1.,0.,0.));
#386=DIRECTION('axis',(0.,0.,1.));
#387=DIRECTION('refdir',(1.,0.,0.));
#388=DIRECTION('center_axis',(0.,0.,-1.));
#389=DIRECTION('ref_axis',(-1.,0.,0.));
#390=DIRECTION('',(-1.,1.31972705369721E-15,0.));
#391=DIRECTION('center_axis',(0.,0.,1.));
#392=DIRECTION('ref_axis',(-0.70710678118655,-0.707106781186545,0.));
#393=DIRECTION('',(5.74005080510676E-16,1.,0.));
#394=DIRECTION('center_axis',(0.,0.,1.));
#395=DIRECTION('ref_axis',(-0.707106781186548,0.707106781186547,0.));
#396=DIRECTION('',(1.,-9.89795290272903E-16,0.));
#397=DIRECTION('center_axis',(0.,0.,1.));
#398=DIRECTION('ref_axis',(0.707106781186548,0.707106781186547,0.));
#399=DIRECTION('',(-1.05234264760291E-15,-1.,0.));
#400=DIRECTION('center_axis',(0.,0.,1.));
#401=DIRECTION('ref_axis',(0.707106781186546,-0.707106781186549,0.));
#402=DIRECTION('center_axis',(0.,0.,1.));
#403=DIRECTION('ref_axis',(1.,0.,0.));
#404=DIRECTION('center_axis',(0.,0.,1.));
#405=DIRECTION('ref_axis',(1.,0.,0.));
#406=DIRECTION('center_axis',(0.,0.,1.));
#407=DIRECTION('ref_axis',(1.,0.,0.));
#408=DIRECTION('center_axis',(0.,0.,1.));
#409=DIRECTION('ref_axis',(1.,0.,0.));
#410=DIRECTION('center_axis',(0.,0.,1.));
#411=DIRECTION('ref_axis',(1.,0.,0.));
#412=DIRECTION('center_axis',(0.,0.,-1.));
#413=DIRECTION('ref_axis',(1.,0.,0.));
#414=DIRECTION('',(0.707106781186547,-8.65956056235493E-17,-0.707106781186548));
#415=DIRECTION('center_axis',(0.,0.,-1.));
#416=DIRECTION('ref_axis',(1.,0.,0.));
#417=DIRECTION('center_axis',(0.,0.,-1.));
#418=DIRECTION('ref_axis',(1.,0.,0.));
#419=DIRECTION('',(0.,0.,-1.));
#420=DIRECTION('center_axis',(0.,0.,1.));
#421=DIRECTION('ref_axis',(1.,0.,0.));
#422=DIRECTION('center_axis',(0.,0.,-1.));
#423=DIRECTION('ref_axis',(1.,0.,0.));
#424=DIRECTION('',(0.707106781186547,-8.65956056235493E-17,-0.707106781186548));
#425=DIRECTION('center_axis',(0.,0.,-1.));
#426=DIRECTION('ref_axis',(1.,0.,0.));
#427=DIRECTION('center_axis',(0.,0.,-1.));
#428=DIRECTION('ref_axis',(1.,0.,0.));
#429=DIRECTION('',(0.,0.,-1.));
#430=DIRECTION('center_axis',(0.,0.,1.));
#431=DIRECTION('ref_axis',(1.,0.,0.));
#432=DIRECTION('center_axis',(0.,0.,-1.));
#433=DIRECTION('ref_axis',(1.,0.,0.));
#434=DIRECTION('',(0.707106781186547,-8.65956056235493E-17,-0.707106781186548));
#435=DIRECTION('center_axis',(0.,0.,-1.));
#436=DIRECTION('ref_axis',(1.,0.,0.));
#437=DIRECTION('center_axis',(0.,0.,-1.));
#438=DIRECTION('ref_axis',(1.,0.,0.));
#439=DIRECTION('',(0.,0.,-1.));
#440=DIRECTION('center_axis',(0.,0.,1.));
#441=DIRECTION('ref_axis',(1.,0.,0.));
#442=DIRECTION('center_axis',(0.,0.,-1.));
#443=DIRECTION('ref_axis',(1.,0.,0.));
#444=DIRECTION('',(0.707106781186547,-8.65956056235493E-17,-0.707106781186548));
#445=DIRECTION('center_axis',(0.,0.,-1.));
#446=DIRECTION('ref_axis',(1.,0.,0.));
#447=DIRECTION('center_axis',(0.,0.,-1.));
#448=DIRECTION('ref_axis',(1.,0.,0.));
#449=DIRECTION('',(0.,0.,-1.));
#450=DIRECTION('center_axis',(-1.05234264760291E-15,-1.,0.));
#451=DIRECTION('ref_axis',(0.707106781186547,0.,0.707106781186548));
#452=DIRECTION('center_axis',(0.,-1.,0.));
#453=DIRECTION('ref_axis',(1.,0.,0.));
#454=DIRECTION('',(-1.05234264760291E-15,-1.,0.));
#455=DIRECTION('center_axis',(0.,1.,0.));
#456=DIRECTION('ref_axis',(0.,0.,1.));
#457=DIRECTION('center_axis',(-1.,1.31972705369721E-15,0.));
#458=DIRECTION('ref_axis',(-1.04672830578918E-15,-0.707106781186548,0.707106781186547));
#459=DIRECTION('center_axis',(-1.,1.48029736616688E-15,0.));
#460=DIRECTION('ref_axis',(-1.48029736616688E-15,-1.,0.));
#461=DIRECTION('',(-1.,1.31972705369721E-15,0.));
#462=DIRECTION('center_axis',(1.,0.,0.));
#463=DIRECTION('ref_axis',(0.,0.,1.));
#464=DIRECTION('center_axis',(-0.408248290463863,-0.816496580927726,-0.408248290463863));
#465=DIRECTION('ref_axis',(0.577350269189626,-0.577350269189625,0.577350269189626));
#466=DIRECTION('center_axis',(5.74005080510676E-16,1.,0.));
#467=DIRECTION('ref_axis',(-0.707106781186547,0.,0.707106781186548));
#468=DIRECTION('center_axis',(0.,1.,0.));
#469=DIRECTION('ref_axis',(-1.,0.,0.));
#470=DIRECTION('',(5.74005080510676E-16,1.,0.));
#471=DIRECTION('center_axis',(0.,-1.,0.));
#472=DIRECTION('ref_axis',(0.,0.,1.));
#473=DIRECTION('center_axis',(-0.408248290463866,-0.40824829046386,-0.816496580927726));
#474=DIRECTION('ref_axis',(-0.57735026918963,-0.577350269189622,0.577350269189626));
#475=DIRECTION('center_axis',(1.,-9.89795290272903E-16,0.));
#476=DIRECTION('ref_axis',(1.04672830578919E-15,0.707106781186546,0.707106781186549));
#477=DIRECTION('center_axis',(1.,-1.48029736616688E-15,0.));
#478=DIRECTION('ref_axis',(1.48029736616688E-15,1.,0.));
#479=DIRECTION('',(1.,-9.89795290272903E-16,0.));
#480=DIRECTION('center_axis',(-1.,1.48029736616688E-15,0.));
#481=DIRECTION('ref_axis',(0.,0.,1.));
#482=DIRECTION('center_axis',(-0.408248290463863,-0.816496580927726,0.408248290463863));
#483=DIRECTION('ref_axis',(-0.577350269189626,0.577350269189625,0.577350269189626));
#484=DIRECTION('center_axis',(0.408248290463862,-0.816496580927727,0.408248290463863));
#485=DIRECTION('ref_axis',(0.577350269189626,0.577350269189625,0.577350269189627));
#486=DIRECTION('center_axis',(0.,0.,1.));
#487=DIRECTION('ref_axis',(1.,0.,0.));
#488=DIRECTION('',(0.,0.,1.));
#489=DIRECTION('',(1.,0.,0.));
#490=DIRECTION('',(0.,0.,1.));
#491=DIRECTION('',(1.,0.,0.));
#492=CARTESIAN_POINT('',(0.,0.,0.));
#493=CARTESIAN_POINT('',(0.,0.,0.));
#494=CARTESIAN_POINT('',(0.,0.,0.));
#495=CARTESIAN_POINT('Origin',(-1.33226762955019E-14,-2.66453525910038E-14,
-4.));
#496=CARTESIAN_POINT('',(23.9200640302674,-46.4200640302664,-4.));
#497=CARTESIAN_POINT('',(-23.9200640302676,-46.4200640302663,-4.));
#498=CARTESIAN_POINT('',(26.9200640302674,-46.4200640302664,-4.));
#499=CARTESIAN_POINT('',(-26.9200640302675,-43.4200640302663,-4.));
#500=CARTESIAN_POINT('Origin',(-23.9200640302675,-43.4200640302663,-4.));
#501=CARTESIAN_POINT('',(-26.9200640302675,43.4200640302663,-4.));
#502=CARTESIAN_POINT('',(-26.9200640302675,-46.4200640302663,-4.));
#503=CARTESIAN_POINT('',(-23.9200640302675,46.4200640302663,-4.));
#504=CARTESIAN_POINT('Origin',(-23.9200640302675,43.4200640302663,-4.));
#505=CARTESIAN_POINT('',(23.9200640302675,46.4200640302663,-4.));
#506=CARTESIAN_POINT('',(-26.9200640302675,46.4200640302663,-4.));
#507=CARTESIAN_POINT('',(26.9200640302675,43.4200640302663,-4.));
#508=CARTESIAN_POINT('Origin',(23.9200640302675,43.4200640302663,-4.));
#509=CARTESIAN_POINT('',(26.9200640302674,-43.4200640302664,-4.));
#510=CARTESIAN_POINT('',(26.9200640302675,46.4200640302663,-4.));
#511=CARTESIAN_POINT('Origin',(23.9200640302674,-43.4200640302664,-4.));
#512=CARTESIAN_POINT('',(18.0450640302676,-39.2450640302664,-4.));
#513=CARTESIAN_POINT('Origin',(19.7450640302676,-39.2450640302664,-4.));
#514=CARTESIAN_POINT('',(18.0450640302676,39.2450640302663,-4.));
#515=CARTESIAN_POINT('Origin',(19.7450640302676,39.2450640302663,-4.));
#516=CARTESIAN_POINT('',(-21.4450640302675,39.2450640302663,-4.));
#517=CARTESIAN_POINT('Origin',(-19.7450640302675,39.2450640302663,-4.));
#518=CARTESIAN_POINT('',(-21.4450640302675,-39.2450640302664,-4.));
#519=CARTESIAN_POINT('Origin',(-19.7450640302675,-39.2450640302664,-4.));
#520=CARTESIAN_POINT('Origin',(-19.7450640302675,-39.2450640302664,-1.725));
#521=CARTESIAN_POINT('',(-22.8950640302675,-39.2450640302664,-1.));
#522=CARTESIAN_POINT('Origin',(-19.7450640302675,-39.2450640302664,-1.));
#523=CARTESIAN_POINT('',(-21.4450640302675,-39.2450640302664,-2.45));
#524=CARTESIAN_POINT('',(-22.1700640302675,-39.2450640302664,-1.725));
#525=CARTESIAN_POINT('Origin',(-19.7450640302675,-39.2450640302664,-2.45));
#526=CARTESIAN_POINT('Origin',(-19.7450640302675,-39.2450640302664,-2.65));
#527=CARTESIAN_POINT('',(-21.4450640302675,-39.2450640302664,-2.65));
#528=CARTESIAN_POINT('Origin',(-19.7450640302675,39.2450640302663,-1.725));
#529=CARTESIAN_POINT('',(-22.8950640302675,39.2450640302663,-0.999999999999999));
#530=CARTESIAN_POINT('Origin',(-19.7450640302675,39.2450640302663,-1.));
#531=CARTESIAN_POINT('',(-21.4450640302675,39.2450640302663,-2.45));
#532=CARTESIAN_POINT('',(-22.1700640302675,39.2450640302663,-1.725));
#533=CARTESIAN_POINT('Origin',(-19.7450640302675,39.2450640302663,-2.45));
#534=CARTESIAN_POINT('Origin',(-19.7450640302675,39.2450640302663,-2.65));
#535=CARTESIAN_POINT('',(-21.4450640302675,39.2450640302663,-2.65));
#536=CARTESIAN_POINT('Origin',(19.7450640302676,39.2450640302663,-1.725));
#537=CARTESIAN_POINT('',(16.5950640302676,39.2450640302663,-0.999999999999996));
#538=CARTESIAN_POINT('Origin',(19.7450640302676,39.2450640302663,-1.));
#539=CARTESIAN_POINT('',(18.0450640302676,39.2450640302663,-2.45));
#540=CARTESIAN_POINT('',(17.3200640302676,39.2450640302663,-1.725));
#541=CARTESIAN_POINT('Origin',(19.7450640302676,39.2450640302663,-2.45));
#542=CARTESIAN_POINT('Origin',(19.7450640302676,39.2450640302663,-2.65));
#543=CARTESIAN_POINT('',(18.0450640302676,39.2450640302663,-2.65));
#544=CARTESIAN_POINT('Origin',(19.7450640302676,-39.2450640302664,-1.725));
#545=CARTESIAN_POINT('',(16.5950640302676,-39.2450640302664,-0.999999999999999));
#546=CARTESIAN_POINT('Origin',(19.7450640302676,-39.2450640302664,-1.));
#547=CARTESIAN_POINT('',(18.0450640302676,-39.2450640302664,-2.45));
#548=CARTESIAN_POINT('',(17.3200640302676,-39.2450640302664,-1.725));
#549=CARTESIAN_POINT('Origin',(19.7450640302676,-39.2450640302664,-2.45));
#550=CARTESIAN_POINT('Origin',(19.7450640302676,-39.2450640302664,-2.65));
#551=CARTESIAN_POINT('',(18.0450640302676,-39.2450640302664,-2.65));
#552=CARTESIAN_POINT('Origin',(23.9200640302675,23.2100320151331,-4.));
#553=CARTESIAN_POINT('',(23.9200640302675,43.4200640302663,-1.));
#554=CARTESIAN_POINT('Origin',(23.9200640302675,43.4200640302663,-4.));
#555=CARTESIAN_POINT('',(23.9200640302674,-43.4200640302664,-1.));
#556=CARTESIAN_POINT('',(23.9200640302675,23.2100320151331,-1.));
#557=CARTESIAN_POINT('Origin',(23.9200640302674,-43.4200640302664,-4.));
#558=CARTESIAN_POINT('Origin',(13.4600320151337,-43.4200640302664,-4.));
#559=CARTESIAN_POINT('Origin',(23.9200640302674,-43.4200640302664,-4.));
#560=CARTESIAN_POINT('',(-23.9200640302676,-43.4200640302663,-1.));
#561=CARTESIAN_POINT('',(13.4600320151337,-43.4200640302664,-1.));
#562=CARTESIAN_POINT('Origin',(-23.9200640302676,-43.4200640302663,-4.));
#563=CARTESIAN_POINT('Origin',(23.9200640302674,-43.4200640302664,-4.));
#564=CARTESIAN_POINT('Origin',(-23.9200640302675,-23.2100320151332,-4.));
#565=CARTESIAN_POINT('Origin',(-23.9200640302675,-43.4200640302663,-4.));
#566=CARTESIAN_POINT('',(-23.9200640302675,43.4200640302663,-1.));
#567=CARTESIAN_POINT('',(-23.9200640302675,-23.2100320151332,-1.));
#568=CARTESIAN_POINT('Origin',(-23.9200640302675,43.4200640302663,-4.));
#569=CARTESIAN_POINT('Origin',(-23.9200640302675,-43.4200640302663,-4.));
#570=CARTESIAN_POINT('Origin',(-13.4600320151337,43.4200640302663,-4.));
#571=CARTESIAN_POINT('Origin',(-23.9200640302675,43.4200640302663,-4.));
#572=CARTESIAN_POINT('',(-13.4600320151337,43.4200640302663,-1.));
#573=CARTESIAN_POINT('Origin',(23.9200640302675,43.4200640302663,-4.));
#574=CARTESIAN_POINT('Origin',(-23.9200640302675,43.4200640302663,-4.));
#575=CARTESIAN_POINT('Origin',(23.9200640302675,43.4200640302663,-4.));
#576=CARTESIAN_POINT('Origin',(-1.33226762955019E-14,-2.66453525910038E-14,
-1.));
#577=CARTESIAN_POINT('',(0.,0.,-30.));
#578=CARTESIAN_POINT('',(0.,0.,0.));
#579=UNCERTAINTY_MEASURE_WITH_UNIT(LENGTH_MEASURE(0.01),#587,
'DISTANCE_ACCURACY_VALUE',
'Maximum model space distance between geometric entities at asserted c
onnectivities');
#580=UNCERTAINTY_MEASURE_WITH_UNIT(LENGTH_MEASURE(0.01),#587,
'DISTANCE_ACCURACY_VALUE',
'Maximum model space distance between geometric entities at asserted c
onnectivities');
#581=UNCERTAINTY_MEASURE_WITH_UNIT(LENGTH_MEASURE(0.01),#587,
'DISTANCE_ACCURACY_VALUE',
'Maximum model space distance between geometric entities at asserted c
onnectivities');
#582=UNCERTAINTY_MEASURE_WITH_UNIT(LENGTH_MEASURE(0.01),#587,
'DISTANCE_ACCURACY_VALUE',
'Maximum model space distance between geometric entities at asserted c
onnectivities');
#583=(
GEOMETRIC_REPRESENTATION_CONTEXT(3)
GLOBAL_UNCERTAINTY_ASSIGNED_CONTEXT((#579))
GLOBAL_UNIT_ASSIGNED_CONTEXT((#587,#589,#590))
REPRESENTATION_CONTEXT('','3D')
);
#584=(
GEOMETRIC_REPRESENTATION_CONTEXT(3)
GLOBAL_UNCERTAINTY_ASSIGNED_CONTEXT((#580))
GLOBAL_UNIT_ASSIGNED_CONTEXT((#587,#589,#590))
REPRESENTATION_CONTEXT('','3D')
);
#585=(
GEOMETRIC_REPRESENTATION_CONTEXT(3)
GLOBAL_UNCERTAINTY_ASSIGNED_CONTEXT((#581))
GLOBAL_UNIT_ASSIGNED_CONTEXT((#587,#589,#590))
REPRESENTATION_CONTEXT('','3D')
);
#586=(
GEOMETRIC_REPRESENTATION_CONTEXT(3)
GLOBAL_UNCERTAINTY_ASSIGNED_CONTEXT((#582))
GLOBAL_UNIT_ASSIGNED_CONTEXT((#587,#589,#590))
REPRESENTATION_CONTEXT('','3D')
);
#587=(
LENGTH_UNIT()
NAMED_UNIT(*)
SI_UNIT(.MILLI.,.METRE.)
);
#588=(
LENGTH_UNIT()
NAMED_UNIT(*)
SI_UNIT($,.METRE.)
);
#589=(
NAMED_UNIT(*)
PLANE_ANGLE_UNIT()
SI_UNIT($,.RADIAN.)
);
#590=(
NAMED_UNIT(*)
SI_UNIT($,.STERADIAN.)
SOLID_ANGLE_UNIT()
);
#591=SHAPE_DEFINITION_REPRESENTATION(#594,#599);
#592=SHAPE_DEFINITION_REPRESENTATION(#595,#600);
#593=SHAPE_DEFINITION_REPRESENTATION(#596,#601);
#594=PRODUCT_DEFINITION_SHAPE('',$,#603);
#595=PRODUCT_DEFINITION_SHAPE('',$,#604);
#596=PRODUCT_DEFINITION_SHAPE('',$,#605);
#597=PRODUCT_DEFINITION_SHAPE($,$,#17);
#598=PRODUCT_DEFINITION_SHAPE($,$,#18);
#599=SHAPE_REPRESENTATION('',(#335,#380,#381),#583);
#600=SHAPE_REPRESENTATION('',(#336),#584);
#601=SHAPE_REPRESENTATION('',(#337),#585);
#602=PRODUCT_DEFINITION_CONTEXT('part definition',#613,'design');
#603=PRODUCT_DEFINITION('PytesEbox_Case','PytesEbox_Case v5',#606,#602);
#604=PRODUCT_DEFINITION('case','case',#607,#602);
#605=PRODUCT_DEFINITION('cover','cover',#608,#602);
#606=PRODUCT_DEFINITION_FORMATION('',$,#615);
#607=PRODUCT_DEFINITION_FORMATION('',$,#616);
#608=PRODUCT_DEFINITION_FORMATION('',$,#617);
#609=PRODUCT_RELATED_PRODUCT_CATEGORY('PytesEbox_Case v5',
'PytesEbox_Case v5',(#615));
#610=PRODUCT_RELATED_PRODUCT_CATEGORY('case','case',(#616));
#611=PRODUCT_RELATED_PRODUCT_CATEGORY('cover','cover',(#617));
#612=APPLICATION_PROTOCOL_DEFINITION('international standard',
'automotive_design',2009,#613);
#613=APPLICATION_CONTEXT(
'Core Data for Automotive Mechanical Design Process');
#614=PRODUCT_CONTEXT('part definition',#613,'mechanical');
#615=PRODUCT('PytesEbox_Case','PytesEbox_Case v5',$,(#614));
#616=PRODUCT('case','case',$,(#614));
#617=PRODUCT('cover','cover',$,(#614));
#618=PRESENTATION_STYLE_ASSIGNMENT((#619));
#619=SURFACE_STYLE_USAGE(.BOTH.,#620);
#620=SURFACE_SIDE_STYLE('',(#621));
#621=SURFACE_STYLE_FILL_AREA(#622);
#622=FILL_AREA_STYLE('Stahl - satiniert',(#623));
#623=FILL_AREA_STYLE_COLOUR('Stahl - satiniert',#624);
#624=COLOUR_RGB('Stahl - satiniert',0.627450980392157,0.627450980392157,
0.627450980392157);
ENDSEC;
END-ISO-10303-21;
